# xmcd
#
# Track frame offsets:
#	150
#	11477
#	23495
#	36585
#	48547
#	61587
#	69465
#	82270
#	95150
#	107267
#	118335
#	131400
#
# Disc length: 1893 seconds
#
# Revision: 1
# Processed by: cddbd v1.5.2PL0 Copyright (c) Steve Scherf et al.
# Submitted via: audiograbber 1.83.01
#
DISCID=9e07630c
DTITLE=The Platters - 36 All-Time Greatest Hits - Disc 3
DYEAR=2001
DGENRE=Oldies
TTITLE0=(You've Got) The Magic Touch
TTITLE1=You'll Never Never Know
TTITLE2=One In A Million
TTITLE3=My Dream
TTITLE4=Enchanted
TTITLE5=Don't Be Cruel
TTITLE6=It's Raining Outside
TTITLE7=Only Because
TTITLE8=Wish It Were Me
TTITLE9=In The Still Of The Night
TTITLE10=I'll Never Smile Again
TTITLE11=Red Sails In The Sunset
EXTD=3CD Set 36 All-Time Greatest Hits Disc 3
EXTT0=
EXTT1=
EXTT2=
EXTT3=
EXTT4=
EXTT5=
EXTT6=
EXTT7=
EXTT8=
EXTT9=
EXTT10=
EXTT11=
PLAYORDER=
